<svg xmlns="http://www.w3.org/2000/svg" xmlns:xlink="http://www.w3.org/1999/xlink" width="247.984" height="204.857" viewBox="0 0 247.984 204.857">
  <defs>
    <filter id="Path_19" x="0" y="46.488" width="247.984" height="158.369" filterUnits="userSpaceOnUse">
      <feOffset dy="3" input="SourceAlpha"/>
      <feGaussianBlur stdDeviation="3" result="blur"/>
      <feFlood flood-opacity="0.161"/>
      <feComposite operator="in" in2="blur"/>
      <feComposite in="SourceGraphic"/>
    </filter>
  </defs>
  <g id="Group_7" data-name="Group 7" transform="translate(9)">
    <g id="Ellipse_11" data-name="Ellipse 11" transform="translate(12.198)" fill="#fff" stroke="#ffe3c5" stroke-width="9">
      <ellipse cx="103.343" cy="52.647" rx="103.343" ry="52.647" stroke="none"/>
      <ellipse cx="103.343" cy="52.647" rx="98.843" ry="48.147" fill="none"/>
    </g>
    <g id="Ellipse_10" data-name="Ellipse 10" transform="translate(44.37 15.599)" fill="#fff" stroke="#ffe3c5" stroke-width="9">
      <ellipse cx="73.12" cy="35.585" rx="73.12" ry="35.585" stroke="none"/>
      <ellipse cx="73.12" cy="35.585" rx="68.62" ry="31.085" fill="none"/>
    </g>
    <g transform="matrix(1, 0, 0, 1, -9, 0)" filter="url(#Path_19)">
      <g id="Path_19-2" data-name="Path 19" transform="translate(22.51 59.89)" fill="#fff">
        <path d="M 106.8345794677734 128.4693908691406 C 83.38118743896484 128.4693908691406 59.9630126953125 127.3512420654297 40.89390563964844 125.3209228515625 C 13.95472621917725 122.4526748657227 4.142975807189941 118.7488555908203 0.6920116543769836 116.7963180541992 C -4.044452667236328 114.1164627075195 -7.196845531463623 106.1688537597656 -8.424416542053223 93.81259918212891 C -9.511774063110352 82.86746215820312 -9.088380813598633 68.60942077636719 -7.166024208068848 51.43456649780273 C -5.207084655761719 33.93292236328125 -2.07021164894104 16.95842361450195 0.1716844737529755 5.986056327819824 C 3.311456203460693 10.48004531860352 7.30358362197876 14.71483993530273 12.08776187896729 18.62092399597168 C 31.47551155090332 34.45017242431641 61.29633331298828 43.08899307250977 100.7219009399414 44.29742431640625 C 103.2874374389648 44.37606811523438 105.8511581420898 44.41592407226562 108.3419036865234 44.41592407226562 C 145.0460510253906 44.41592407226562 173.161865234375 36.08056640625 191.9083404541016 19.64138793945312 C 196.4388427734375 15.66846179962158 200.3761444091797 11.18515300750732 203.4821166992188 6.485620498657227 C 203.76123046875 7.922646045684814 204.0535430908203 9.456841468811035 204.3544769287109 11.07506656646729 C 206.1472930908203 20.7157096862793 208.6243286132812 35.41338729858398 210.2438659667969 50.68470764160156 C 212.0490417480469 67.70645904541016 212.4436187744141 81.93474578857422 211.4166259765625 92.97438812255859 C 209.9367980957031 108.8820343017578 205.8333740234375 114.820426940918 202.6516571044922 117.0009231567383 C 199.7233734130859 119.0077056884766 191.2314453125 122.7835693359375 167.2587585449219 125.5244979858398 C 150.4087677001953 127.4510650634766 129.514404296875 128.4693908691406 106.8345794677734 128.4693908691406 Z" stroke="none"/>
        <path d="M 2.668701171875 15.98090362548828 C -5.97442626953125 61.31533813476562 -7.9700927734375 106.7250747680664 2.907974243164062 112.8797607421875 C 14.08192443847656 119.2018814086914 58.76068115234375 123.9693832397461 106.8346328735352 123.9693832397461 C 160.2117919921875 123.9693832397461 192.6017150878906 118.4329681396484 200.1077575683594 113.2889633178711 C 210.4857330322266 106.1767578125 208.8939361572266 61.49333953857422 200.9815673828125 17.07077026367188 C 187.5022888183594 32.02045440673828 160.6895294189453 48.91592407226562 108.3418045043945 48.91592407226562 C 105.8237991333008 48.91592407226562 103.2276306152344 48.87638092041016 100.5840072631836 48.79534149169922 C 44.51069641113281 47.07662963867188 16.48934936523438 30.40730285644531 2.668701171875 15.98090362548828 M -1.523956298828125 -7.39990234375 C -1.523956298828125 -7.39990234375 8.235336303710938 36.96051025390625 100.8597564697266 39.79954528808594 C 193.4841156005859 42.63888549804688 205.1955108642578 -7.39990234375 205.1955108642578 -7.39990234375 C 205.1955108642578 -7.39990234375 230.5697174072266 103.3235092163086 205.1955108642578 120.7128829956055 C 179.8212585449219 138.1022644042969 25.44711303710938 135.9728393554688 -1.523956298828125 120.7128829956055 C -28.4949951171875 105.4529647827148 -1.523956298828125 -7.39990234375 -1.523956298828125 -7.39990234375 Z" stroke="none" fill="#ffe3c5"/>
      </g>
    </g>
    <g id="Icon_material-pets" data-name="Icon material-pets" transform="translate(93.164 122.045)">
      <path id="Path_10" data-name="Path 10" d="M15.2,16.6a6.1,6.1,0,1,1-6.1-6.1,6.1,6.1,0,0,1,6.1,6.1Z" transform="translate(-3 -0.74)" fill="#492f24"/>
      <path id="Path_11" data-name="Path 11" d="M21.951,10.6a6.1,6.1,0,1,1-6.1-6.1,6.1,6.1,0,0,1,6.1,6.1Z" transform="translate(1.23 -4.5)" fill="#492f24"/>
      <path id="Path_12" data-name="Path 12" d="M30.951,10.6a6.1,6.1,0,1,1-6.1-6.1,6.1,6.1,0,0,1,6.1,6.1Z" transform="translate(6.871 -4.5)" fill="#492f24"/>
      <path id="Path_13" data-name="Path 13" d="M37.7,16.6a6.1,6.1,0,1,1-6.1-6.1,6.1,6.1,0,0,1,6.1,6.1Z" transform="translate(11.102 -0.74)" fill="#492f24"/>
      <path id="Path_14" data-name="Path 14" d="M38.557,26.389c-2.123-2.489-3.9-4.612-6.051-7.1a10.352,10.352,0,0,0-4.27-3.221,4.94,4.94,0,0,0-.805-.22,12.281,12.281,0,0,0-1.9-.1,10.236,10.236,0,0,0-1.928.122,4.94,4.94,0,0,0-.805.22,10.512,10.512,0,0,0-4.27,3.221c-2.123,2.489-3.9,4.612-6.051,7.1-3.2,3.2-7.125,6.735-6.393,11.688a7.661,7.661,0,0,0,5.685,5.661c1.781.366,7.467-1.074,13.518-1.074h.439c6.051,0,11.737,1.415,13.518,1.074A7.7,7.7,0,0,0,44.926,38.1c.756-4.978-3.172-8.516-6.369-11.712Z" transform="translate(-1.126 2.551)" fill="#492f24"/>
    </g>
  </g>
</svg>
