<svg xmlns="http://www.w3.org/2000/svg" width="137.717" height="129.11" viewBox="0 0 137.717 129.11">
  <path id="Icon_awesome-cat" data-name="Icon awesome-cat" d="M78.163,45.287c-5.428,0-28.732.533-43.733,23.119V45.287A25.849,25.849,0,0,0,8.607,19.465a8.607,8.607,0,0,0,0,17.215,8.619,8.619,0,0,1,8.607,8.607v68.859A17.231,17.231,0,0,0,34.429,131.36H81.77a4.3,4.3,0,0,0,4.3-4.3v-4.3a8.608,8.608,0,0,0-8.607-8.607H68.859l34.429-25.822v38.733a4.3,4.3,0,0,0,4.3,4.3H116.2a4.3,4.3,0,0,0,4.3-4.3V71.609A34.087,34.087,0,0,1,111.9,72.83,34.485,34.485,0,0,1,78.163,45.287ZM120.5,19.465H103.288L86.073,2.25V38.4a25.822,25.822,0,1,0,51.644,0V2.25ZM101.136,40.983a4.3,4.3,0,1,1,4.3-4.3A4.3,4.3,0,0,1,101.136,40.983Zm21.518,0a4.3,4.3,0,1,1,4.3-4.3A4.3,4.3,0,0,1,122.655,40.983Z" transform="translate(0 -2.25)" fill="#492f24"/>
</svg>
