<svg xmlns="http://www.w3.org/2000/svg" width="208.253" height="211.485" viewBox="0 0 208.253 211.485">
  <g id="Group_8" data-name="Group 8" transform="translate(0 0)">
    <g id="Rectangle_25" data-name="Rectangle 25" transform="matrix(0.839, -0.545, 0.545, 0.839, 49.358, 73.156)" fill="#fff" stroke="#707070" stroke-width="1">
      <rect width="59.494" height="112.52" rx="11" stroke="none"/>
      <rect x="0.5" y="0.5" width="58.494" height="111.52" rx="10.5" fill="none"/>
    </g>
    <path id="Icon_metro-injection" data-name="Icon metro-injection" d="M142,41.623a6.188,6.188,0,0,1,0,8.759c-2.422,2.416-4.389,4.383-4.389,4.383L142,59.148a12.4,12.4,0,0,1,0,17.525l-65.71,65.7a12.383,12.383,0,0,1-17.525,0l-4.383-4.383L36.861,155.518l8.759,8.759a6.194,6.194,0,0,1-8.759,8.759L1.812,137.98a6.194,6.194,0,0,1,8.759-8.759l8.759,8.759,17.525-17.518-4.383-4.383a12.375,12.375,0,0,1,0-17.518l65.716-65.7a12.375,12.375,0,0,1,17.518,0l4.383,4.383,4.383-4.383a6.188,6.188,0,0,1,8.759,0l2.191,2.191L170.472,0V8.759L139.805,39.426l2.191,2.2ZM111.33,37.241a6.188,6.188,0,0,0-8.759,0L89.429,50.383l8.759,8.759-4.383,4.383-8.759-8.759L71.9,67.907l8.759,8.766L76.28,81.056,67.515,72.29l-4.383,4.383L80.657,94.191l-4.383,4.383L58.749,81.056,45.62,94.185,63.138,111.7l-4.383,4.383L41.237,98.567l-4.383,4.383a6.188,6.188,0,0,0,0,8.759l26.284,26.284a6.184,6.184,0,0,0,8.766,0l65.7-65.7a6.176,6.176,0,0,0,0-8.759L111.33,37.241ZM93.811,46l4.383-4.383,17.518,17.518-4.383,4.383Zm0,35.043L76.293,63.518l4.383-4.383L98.194,76.66ZM50,89.808l4.383-4.383,8.759,8.759-4.383,4.383ZM179.045,42.77a8.41,8.41,0,0,1-16.82,0c0-4.652,8.413-17.352,8.413-17.352S179.045,38.125,179.045,42.77Z" transform="matrix(-0.208, 0.978, -0.978, -0.208, 208.253, 36.353)" fill="#ffe3c5"/>
  </g>
</svg>
