<svg xmlns="http://www.w3.org/2000/svg" width="74.354" height="93.066" viewBox="0 0 74.354 93.066">
  <g id="Icon_ionic-ios-notifications-outline" data-name="Icon ionic-ios-notifications-outline" transform="translate(-6.775 -3.93)">
    <path id="Path_26" data-name="Path 26" d="M33.453,28.336A3.013,3.013,0,0,0,30.5,30.709a5.829,5.829,0,0,1-1.163,2.535c-.3.349-1.186,1.372-3.745,1.372s-3.443-1.047-3.745-1.372a5.829,5.829,0,0,1-1.163-2.535,3.013,3.013,0,0,0-2.954-2.373h0a3.033,3.033,0,0,0-2.954,3.7c1.163,5.187,4.885,8.63,10.816,8.63s9.653-3.419,10.816-8.63a3.045,3.045,0,0,0-2.954-3.7Z" transform="translate(18.296 56.332)" fill="#180701"/>
    <path id="Path_27" data-name="Path 27" d="M80.2,72.852c-3.582-4.722-10.63-7.49-10.63-28.634,0-21.7-9.583-30.425-18.516-32.518-.837-.209-1.442-.488-1.442-1.372V9.653A5.705,5.705,0,0,0,44.026,3.93h-.14A5.705,5.705,0,0,0,38.3,9.653v.675c0,.861-.6,1.163-1.442,1.372-8.955,2.117-18.516,10.816-18.516,32.518,0,21.144-7.048,23.889-10.63,28.634a4.617,4.617,0,0,0,3.7,7.4H76.568A4.621,4.621,0,0,0,80.2,72.852ZM71.125,74.2H16.881a1.02,1.02,0,0,1-.768-1.7A28.18,28.18,0,0,0,21,64.734c2.233-5.257,3.326-11.979,3.326-20.516,0-8.676,1.628-15.468,4.861-20.19a14.925,14.925,0,0,1,9-6.42,8.152,8.152,0,0,0,4.326-2.442,1.84,1.84,0,0,1,2.768-.047,8.427,8.427,0,0,0,4.373,2.489,14.925,14.925,0,0,1,9,6.42c3.233,4.722,4.861,11.514,4.861,20.19,0,8.537,1.093,15.259,3.326,20.516a28.5,28.5,0,0,0,5,7.885A.962.962,0,0,1,71.125,74.2Z" transform="translate(0)" fill="#180701"/>
  </g>
</svg>
