<svg xmlns="http://www.w3.org/2000/svg" width="140.781" height="181.898" viewBox="0 0 140.781 181.898">
  <g id="Group_76" data-name="Group 76" transform="translate(-79.945)">
    <g id="Group_4" data-name="Group 4" transform="translate(79.945)">
      <g id="Union_1" data-name="Union 1" transform="translate(0)" fill="#fff">
        <path d="M 136.2809906005859 177.3983612060547 L 4.500013828277588 177.3983612060547 L 4.500013828277588 76.83274078369141 L 15.51275539398193 41.72577667236328 L 18.37490844726562 41.72577667236328 L 18.37490844726562 37.22577667236328 L 18.37490844726562 4.500015258789062 L 118.5135955810547 4.500015258789062 L 118.5135955810547 37.22577667236328 L 118.5135955810547 41.72577667236328 L 122.4548187255859 41.72577667236328 L 136.2809906005859 76.99398803710938 L 136.2809906005859 177.3983612060547 Z" stroke="none"/>
        <path d="M 131.7809906005859 172.8983612060547 L 131.7809906005859 77.84458160400391 L 119.3854827880859 46.22576522827148 L 18.81734657287598 46.22576522827148 L 9.000019073486328 77.52194976806641 L 9.000019073486328 172.8983612060547 L 131.7809906005859 172.8983612060547 M 114.0135803222656 28.22576713562012 L 114.0135803222656 9.000017166137695 L 22.87489318847656 9.000017166137695 L 22.87489318847656 28.22576713562012 L 114.0135803222656 28.22576713562012 M 140.7809906005859 181.8983612060547 L 1.892089858301915e-05 181.8983612060547 L 1.892089858301915e-05 76.14345550537109 L 12.20814418792725 37.22576522827148 L 125.5241088867188 37.22576522827148 L 140.7809906005859 76.14345550537109 L 140.7809906005859 181.8983612060547 Z M 123.0135803222656 37.22576522827148 L 13.87489414215088 37.22576522827148 L 13.87489414215088 1.67236321431119e-05 L 123.0135803222656 1.67236321431119e-05 L 123.0135803222656 37.22576522827148 Z" stroke="none" fill="#ffe3c5"/>
      </g>
    </g>
    <g id="Icon_material-pets" data-name="Icon material-pets" transform="translate(125.606 83.812)">
      <path id="Path_10" data-name="Path 10" d="M15.268,16.634A6.134,6.134,0,1,1,9.134,10.5a6.134,6.134,0,0,1,6.134,6.134Z" transform="translate(-3 -0.686)" fill="#492f24"/>
      <path id="Path_11" data-name="Path 11" d="M22.018,10.634A6.134,6.134,0,1,1,15.884,4.5a6.134,6.134,0,0,1,6.134,6.134Z" transform="translate(1.291 -4.5)" fill="#492f24"/>
      <path id="Path_12" data-name="Path 12" d="M31.018,10.634A6.134,6.134,0,1,1,24.884,4.5a6.134,6.134,0,0,1,6.134,6.134Z" transform="translate(7.012 -4.5)" fill="#492f24"/>
      <path id="Path_13" data-name="Path 13" d="M37.768,16.634A6.134,6.134,0,1,1,31.634,10.5a6.134,6.134,0,0,1,6.134,6.134Z" transform="translate(11.303 -0.686)" fill="#492f24"/>
      <path id="Path_14" data-name="Path 14" d="M38.736,26.447c-2.135-2.5-3.926-4.637-6.085-7.14a10.409,10.409,0,0,0-4.294-3.239,4.967,4.967,0,0,0-.81-.221,12.348,12.348,0,0,0-1.914-.1,10.292,10.292,0,0,0-1.938.123,4.967,4.967,0,0,0-.81.221,10.569,10.569,0,0,0-4.294,3.239c-2.135,2.5-3.926,4.637-6.085,7.14C9.294,29.686,5.344,33.243,6.08,38.224A7.7,7.7,0,0,0,11.8,43.916c1.791.368,7.508-1.08,13.592-1.08h.442c6.085,0,11.8,1.423,13.592,1.08a7.74,7.74,0,0,0,5.717-5.692C45.9,33.219,41.95,29.661,38.736,26.447Z" transform="translate(-1.099 2.651)" fill="#492f24"/>
    </g>
  </g>
</svg>
