<svg xmlns="http://www.w3.org/2000/svg" width="152.316" height="168.24" viewBox="0 0 152.316 168.24">
  <g id="Group_9" data-name="Group 9" transform="translate(4.5 4.5)">
    <g id="Icon_feather-home" data-name="Icon feather-home" transform="translate(0 0)">
      <path id="Path_22" data-name="Path 22" d="M4.5,58.734,76.158,3l71.658,55.734v87.582a15.924,15.924,0,0,1-15.924,15.924H20.424A15.924,15.924,0,0,1,4.5,146.316Z" transform="translate(-4.5 -3)" fill="#fff" stroke="#ffe3c5" stroke-linecap="round" stroke-linejoin="round" stroke-width="9"/>
      <line id="Line_2" data-name="Line 2" x2="142.326" transform="translate(0.619 56.767)" fill="none" stroke="#ffe3c5" stroke-width="9"/>
    </g>
    <g id="Icon_material-pets" data-name="Icon material-pets" transform="translate(40.512 72.194)">
      <path id="Path_10" data-name="Path 10" d="M18.573,18.286A7.786,7.786,0,1,1,10.786,10.5a7.786,7.786,0,0,1,7.786,7.786Z" transform="translate(-3 1.958)" fill="#492f24"/>
      <path id="Path_11" data-name="Path 11" d="M25.323,12.286A7.786,7.786,0,1,1,17.536,4.5a7.786,7.786,0,0,1,7.786,7.786Z" transform="translate(4.265 -4.5)" fill="#492f24"/>
      <path id="Path_12" data-name="Path 12" d="M34.323,12.286A7.786,7.786,0,1,1,26.536,4.5a7.786,7.786,0,0,1,7.786,7.786Z" transform="translate(13.953 -4.5)" fill="#492f24"/>
      <path id="Path_13" data-name="Path 13" d="M41.073,18.286A7.786,7.786,0,1,1,33.286,10.5a7.786,7.786,0,0,1,7.786,7.786Z" transform="translate(21.218 1.958)" fill="#492f24"/>
      <path id="Path_14" data-name="Path 14" d="M47.559,29.329c-2.71-3.177-4.983-5.886-7.724-9.063a13.214,13.214,0,0,0-5.45-4.111,6.305,6.305,0,0,0-1.028-.28,15.675,15.675,0,0,0-2.429-.125,13.065,13.065,0,0,0-2.46.156,6.306,6.306,0,0,0-1.028.28,13.417,13.417,0,0,0-5.45,4.111c-2.71,3.177-4.983,5.886-7.724,9.063-4.08,4.08-9.094,8.6-8.16,14.919a9.779,9.779,0,0,0,7.257,7.226c2.274.467,9.531-1.37,17.255-1.37h.561c7.724,0,14.981,1.806,17.255,1.37a9.826,9.826,0,0,0,7.257-7.226c.966-6.354-4.049-10.87-8.129-14.95Z" transform="translate(0.219 7.609)" fill="#492f24"/>
    </g>
  </g>
</svg>
