<svg xmlns="http://www.w3.org/2000/svg" width="63.358" height="63.353" viewBox="0 0 63.358 63.353">
  <path id="Icon_ionic-ios-call" data-name="Icon ionic-ios-call" d="M6.32,54.109c2.425-2.425,8.247-6.07,11.117-7.439,3.332-1.6,4.552-1.567,6.911.132,1.963,1.418,3.233,2.738,5.492,2.243,2.26-.478,6.713-3.859,11.034-8.164,4.321-4.321,7.686-8.775,8.164-11.034.478-2.276-.841-3.53-2.243-5.492-1.7-2.359-1.748-3.579-.132-6.911,1.369-2.886,5-8.692,7.439-11.117,2.425-2.425,2.969-1.9,4.3-1.418A24.5,24.5,0,0,1,62.349,7a11.892,11.892,0,0,1,4.734,5c.94,2.029,2.029,5.806-3.513,15.669A87.431,87.431,0,0,1,48.2,48.172h0l-.016.016-.016.016h0a87.772,87.772,0,0,1-20.5,15.372C17.8,69.118,14.022,68.03,11.994,67.09S8.613,64.8,7,62.356A24.5,24.5,0,0,1,4.9,58.414C4.423,57.078,3.879,56.534,6.32,54.109Z" transform="translate(-4.49 -4.502)" fill="#492f24"/>
</svg>
