<svg xmlns="http://www.w3.org/2000/svg" width="134.311" height="125.917" viewBox="0 0 134.311 125.917">
  <path id="Icon_awesome-dog" data-name="Icon awesome-dog" d="M130.114,19.039H113.325l-1.878-3.754a8.394,8.394,0,0,0-7.508-4.641H89.873L82.717,3.488A4.2,4.2,0,0,0,75.55,6.455V45.762l33.578,11.991V48.419h8.394A16.788,16.788,0,0,0,134.311,31.63V23.236A4.2,4.2,0,0,0,130.114,19.039ZM100.734,31.63a4.2,4.2,0,1,1,4.2-4.2A4.2,4.2,0,0,1,100.734,31.63ZM25.183,52.617a8.406,8.406,0,0,1-8.394-8.394A8.394,8.394,0,0,0,0,44.222,25.14,25.14,0,0,0,16.789,67.858V123.97a4.2,4.2,0,0,0,4.2,4.2H37.775a4.2,4.2,0,0,0,4.2-4.2V94.589H83.945V123.97a4.2,4.2,0,0,0,4.2,4.2h16.789a4.2,4.2,0,0,0,4.2-4.2V66.664L69.792,52.617Z" transform="translate(0 -2.25)" fill="#492f24"/>
</svg>
