<svg xmlns="http://www.w3.org/2000/svg" width="32.045" height="51.272" viewBox="0 0 32.045 51.272">
  <path id="Icon_metro-location" data-name="Icon metro-location" d="M24.377,1.928A16.022,16.022,0,0,0,8.355,17.951C8.355,33.973,24.377,53.2,24.377,53.2S40.4,33.973,40.4,17.951A16.023,16.023,0,0,0,24.377,1.928Zm0,25.836a9.814,9.814,0,1,1,9.814-9.814A9.814,9.814,0,0,1,24.377,27.764Zm-6.209-9.814a6.209,6.209,0,1,1,6.209,6.209A6.209,6.209,0,0,1,18.169,17.951Z" transform="translate(-8.355 -1.928)" fill="#492f24"/>
</svg>
