<svg id="Group_5" data-name="Group 5" xmlns="http://www.w3.org/2000/svg" width="219.361" height="184.263" viewBox="0 0 219.361 184.263">
  <g id="Union_2" data-name="Union 2" transform="translate(0 0)" fill="#fff">
    <path d="M 138.9987030029297 122.2416076660156 L 10.87739944458008 122.2416076660156 L 10.87739944458008 24.27210998535156 L 9.999899864196777 25.14960861206055 L 9.999899864196777 19.77210998535156 C 6.967233180999756 19.77210998535156 4.499995231628418 17.30487060546875 4.499995231628418 14.27220439910889 L 4.499995231628418 9.999895095825195 C 4.499995231628418 6.967252254486084 6.967233180999756 4.500014305114746 9.999899864196777 4.500014305114746 L 143.0649261474609 4.500014305114746 C 146.0980682373047 4.500014305114746 148.5657043457031 6.967252254486084 148.5657043457031 9.999895095825195 L 148.5657043457031 14.27220439910889 C 148.5657043457031 17.30487060546875 146.0980682373047 19.77210998535156 143.0649261474609 19.77210998535156 L 143.0649261474609 28.33832359313965 L 138.9987030029297 24.27210998535156 L 138.9987030029297 122.2416076660156 Z" stroke="none"/>
    <path d="M 134.4987182617188 117.7416076660156 L 134.4987182617188 33.2721061706543 L 15.37740802764893 33.2721061706543 L 15.37740802764893 117.7416076660156 L 134.4987182617188 117.7416076660156 M 143.0649108886719 15.27210521697998 C 143.6167449951172 15.27210521697998 144.0657196044922 14.8235502243042 144.0657196044922 14.272216796875 L 144.0657196044922 9.999911308288574 C 144.0657196044922 9.448550224304199 143.6167449951172 8.999994277954102 143.0649108886719 8.999994277954102 L 9.999907493591309 8.999994277954102 C 9.448546409606934 8.999994277954102 8.999991416931152 9.448550224304199 8.999991416931152 9.999911308288574 L 8.999991416931152 14.272216796875 C 8.999991416931152 14.8235502243042 9.448546409606934 15.27210521697998 9.999907493591309 15.27210521697998 L 143.0649108886719 15.27210521697998 M 143.4987182617188 126.7416076660156 L 6.377407550811768 126.7416076660156 L 6.377407550811768 24.2721061706543 L 143.4987182617188 24.2721061706543 L 143.4987182617188 126.7416076660156 Z M 143.0649108886719 24.2721061706543 L 9.999907493591309 24.2721061706543 C 4.477490901947021 24.2721061706543 -8.938259270507842e-06 19.79460525512695 -8.938259270507842e-06 14.272216796875 L -8.938259270507842e-06 9.999911308288574 C -8.938259270507842e-06 4.476605415344238 4.477490901947021 -5.537245215236908e-06 9.999907493591309 -5.537245215236908e-06 L 143.0649108886719 -5.537245215236908e-06 C 148.5882110595703 -5.537245215236908e-06 153.0657196044922 4.476605415344238 153.0657196044922 9.999911308288574 L 153.0657196044922 14.272216796875 C 153.0657196044922 19.79460525512695 148.5882110595703 24.2721061706543 143.0649108886719 24.2721061706543 Z" stroke="none" fill="#ffe3c5"/>
  </g>
  <g id="Rectangle_24" data-name="Rectangle 24" transform="translate(0 126.742)" fill="#fff" stroke="#ffe3c5" stroke-width="9">
    <rect width="219.361" height="27.298" rx="9" stroke="none"/>
    <rect x="4.5" y="4.5" width="210.361" height="18.298" rx="4.5" fill="none"/>
  </g>
  <g id="Ellipse_5" data-name="Ellipse 5" transform="translate(25.348 144.291)" fill="#fff" stroke="#ffe3c5" stroke-width="9">
    <ellipse cx="20.961" cy="19.986" rx="20.961" ry="19.986" stroke="none"/>
    <ellipse cx="20.961" cy="19.986" rx="16.461" ry="15.486" fill="none"/>
  </g>
  <g id="Ellipse_6" data-name="Ellipse 6" transform="translate(150.14 139.416)" fill="#fff" stroke="#ffe3c5" stroke-width="9">
    <ellipse cx="22.911" cy="21.936" rx="22.911" ry="21.936" stroke="none"/>
    <ellipse cx="22.911" cy="21.936" rx="18.411" ry="17.436" fill="none"/>
  </g>
  <path id="Path_15" data-name="Path 15" d="M3127.15,3897.35h31.538l37.292,53.7v17.315h-67.339Z" transform="translate(-2984.215 -3841.548)" fill="#fff" stroke="#ffe3c5" stroke-width="9"/>
  <path id="Path_16" data-name="Path 16" d="M3127.15,3897.35h12.987l15.356,21.5v6.932h-27.728Z" transform="translate(-2970.843 -3825.583)" fill="#fff" stroke="#ffe3c5" stroke-width="6"/>
  <ellipse id="Ellipse_7" data-name="Ellipse 7" cx="10.724" cy="10.237" rx="10.724" ry="10.237" transform="translate(36.073 154.04)" fill="#492f24"/>
  <ellipse id="Ellipse_8" data-name="Ellipse 8" cx="11.699" cy="11.212" rx="11.699" ry="11.212" transform="translate(161.84 150.14)" fill="#492f24"/>
  <g id="Icon_material-pets" data-name="Icon material-pets" transform="translate(49.293 46.431)">
    <path id="Path_10" data-name="Path 10" d="M16.407,17.2a6.7,6.7,0,1,1-6.7-6.7,6.7,6.7,0,0,1,6.7,6.7Z" transform="translate(-3 0.226)" fill="#492f24"/>
    <path id="Path_11" data-name="Path 11" d="M23.157,11.2a6.7,6.7,0,1,1-6.7-6.7,6.7,6.7,0,0,1,6.7,6.7Z" transform="translate(2.316 -4.5)" fill="#492f24"/>
    <path id="Path_12" data-name="Path 12" d="M32.157,11.2a6.7,6.7,0,1,1-6.7-6.7,6.7,6.7,0,0,1,6.7,6.7Z" transform="translate(9.405 -4.5)" fill="#492f24"/>
    <path id="Path_13" data-name="Path 13" d="M38.907,17.2a6.7,6.7,0,1,1-6.7-6.7,6.7,6.7,0,0,1,6.7,6.7Z" transform="translate(14.721 0.226)" fill="#492f24"/>
    <path id="Path_14" data-name="Path 14" d="M41.777,27.441c-2.333-2.735-4.29-5.068-6.65-7.8A11.376,11.376,0,0,0,30.435,16.1a5.428,5.428,0,0,0-.885-.241,13.5,13.5,0,0,0-2.091-.107,11.249,11.249,0,0,0-2.118.134,5.429,5.429,0,0,0-.885.241,11.551,11.551,0,0,0-4.692,3.539c-2.333,2.735-4.29,5.068-6.65,7.8-3.513,3.513-7.83,7.4-7.025,12.844a8.419,8.419,0,0,0,6.248,6.221c1.957.4,8.205-1.18,14.855-1.18h.483c6.65,0,12.9,1.555,14.855,1.18a8.459,8.459,0,0,0,6.248-6.221c.831-5.47-3.486-9.358-7-12.871Z" transform="translate(-0.645 4.36)" fill="#492f24"/>
  </g>
</svg>
