<svg id="Group_6" data-name="Group 6" xmlns="http://www.w3.org/2000/svg" width="184.263" height="200.465" viewBox="0 0 184.263 200.465">
  <g id="Ellipse_9" data-name="Ellipse 9" fill="#fff" stroke="#ffe3c5" stroke-width="9">
    <circle cx="92.132" cy="92.132" r="92.132" stroke="none"/>
    <circle cx="92.132" cy="92.132" r="87.632" fill="none"/>
  </g>
  <path id="Path_17" data-name="Path 17" d="M3154.8,3705.4s8.189,48.942,36.657,69.416,77.215,12.479,77.215,12.479" transform="translate(-3088.699 -3695.26)" fill="#fff" stroke="#ffe3c5" stroke-width="9"/>
  <path id="Path_18" data-name="Path 18" d="M0,69.2s8.189-40.6,36.657-57.577S113.873,1.275,113.873,1.275" transform="translate(71.359 68.47) rotate(69)" fill="#fff" stroke="#ffe3c5" stroke-width="9"/>
  <path id="Path_20" data-name="Path 20" d="M0,0C15.613,12.853,42.347,7.834,42.347,7.834" transform="matrix(0.574, 0.819, -0.819, 0.574, 53.106, 26.255)" fill="none" stroke="#ffe3c5" stroke-width="9"/>
  <path id="Path_21" data-name="Path 21" d="M0,8.8C15.613-4.054,42.347.965,42.347.965" transform="matrix(0.208, 0.978, -0.978, 0.208, 114.233, 112.4)" fill="none" stroke="#ffe3c5" stroke-width="9"/>
</svg>
