<svg xmlns="http://www.w3.org/2000/svg" width="63.047" height="63.047" viewBox="0 0 63.047 63.047">
  <path id="Icon_ionic-logo-whatsapp" data-name="Icon ionic-logo-whatsapp" d="M34.345,2.25A30.832,30.832,0,0,0,3.395,32.962,30.394,30.394,0,0,0,7.836,48.82L2.25,65.3l17.136-5.444A31,31,0,0,0,65.3,32.962,30.832,30.832,0,0,0,34.345,2.25ZM49.736,44.625c-.728,1.805-4.021,3.453-5.474,3.528s-1.493,1.125-9.406-2.313S22.182,34.042,21.807,33.5s-3.065-4.369-2.92-8.226A8.77,8.77,0,0,1,21.9,18.842a3.031,3.031,0,0,1,2.144-.9c.623-.01,1.027-.019,1.488,0s1.153-.1,1.752,1.5,2.033,5.51,2.216,5.909a1.434,1.434,0,0,1,.014,1.375A5.375,5.375,0,0,1,28.674,28c-.413.443-.869.991-1.237,1.33-.411.375-.84.784-.408,1.586a23.684,23.684,0,0,0,4.191,5.592,21.594,21.594,0,0,0,6.206,4.126c.776.423,1.239.376,1.721-.131s2.06-2.216,2.617-2.979,1.078-.615,1.793-.328,4.525,2.33,5.3,2.751,1.294.637,1.479.971A6.5,6.5,0,0,1,49.736,44.625Z" transform="translate(-2.25 -2.25)" fill="#492f24"/>
</svg>
